<svg width="24" height="24" viewBox="0 0 24 24" fill="none" xmlns="http://www.w3.org/2000/svg">
<path fill-rule="evenodd" clip-rule="evenodd" d="M6.75 8.34375C5.7803 8.34375 4.85032 8.72896 4.16464 9.41464C3.47896 10.1003 3.09375 11.0303 3.09375 12C3.09375 12.9697 3.47896 13.8997 4.16464 14.5854C4.85032 15.271 5.7803 15.6562 6.75 15.6562H9.75C10.216 15.6562 10.5938 16.034 10.5938 16.5C10.5938 16.966 10.216 17.3438 9.75 17.3438H6.75C5.33275 17.3438 3.97355 16.7808 2.9714 15.7786C1.96925 14.7765 1.40625 13.4173 1.40625 12C1.40625 10.5827 1.96925 9.22355 2.9714 8.2214C3.97355 7.21925 5.33275 6.65625 6.75 6.65625H9.75C10.216 6.65625 10.5938 7.03401 10.5938 7.5C10.5938 7.96599 10.216 8.34375 9.75 8.34375H6.75Z" fill="black"/>
<path fill-rule="evenodd" clip-rule="evenodd" d="M13.4062 7.5C13.4062 7.03401 13.784 6.65625 14.25 6.65625H17.25C18.6673 6.65625 20.0265 7.21925 21.0286 8.2214C22.0308 9.22355 22.5938 10.5827 22.5938 12C22.5938 13.4173 22.0308 14.7765 21.0286 15.7786C20.0265 16.7808 18.6673 17.3438 17.25 17.3438H14.25C13.784 17.3438 13.4062 16.966 13.4062 16.5C13.4062 16.034 13.784 15.6562 14.25 15.6562H17.25C18.2197 15.6562 19.1497 15.271 19.8354 14.5854C20.521 13.8997 20.9062 12.9697 20.9062 12C20.9062 11.0303 20.521 10.1003 19.8354 9.41464C19.1497 8.72896 18.2197 8.34375 17.25 8.34375H14.25C13.784 8.34375 13.4062 7.96599 13.4062 7.5Z" fill="black"/>
<path fill-rule="evenodd" clip-rule="evenodd" d="M6.81055 12C6.81055 11.534 7.18831 11.1562 7.6543 11.1562H16.4396C16.9056 11.1562 17.2834 11.534 17.2834 12C17.2834 12.466 16.9056 12.8438 16.4396 12.8438H7.6543C7.18831 12.8438 6.81055 12.466 6.81055 12Z" fill="black"/>
</svg>
