<svg width="24" height="24" viewBox="0 0 24 24" fill="none" xmlns="http://www.w3.org/2000/svg">
<path fill-rule="evenodd" clip-rule="evenodd" d="M21 2.62953L21 2.62953V2.63547V20.2005C21 20.6881 20.6363 21 20.3153 21H2.79438C2.39486 21 2 20.6056 2 20.2005V2.63547C2 2.35417 2.26898 2 2.79438 2H20.3205C20.7625 2 21.0021 2.27591 21 2.62953ZM20.3205 1H2.79438C1.83672 1 1 1.68906 1 2.63547V20.2005C1 21.152 1.83672 22 2.79438 22H20.3153C21.2781 22 22 21.1464 22 20.2005V2.63547C22.0056 1.68906 21.2781 1 20.3205 1ZM4.50098 18.5044H7.50942V9.15051H4.50098V18.5044ZM6.0877 7.72832H6.10926C7.11004 7.72832 7.73348 7.0116 7.73395 6.11441C7.71239 5.19566 7.11004 4.50098 6.12567 4.50098C5.14129 4.50098 4.50145 5.20082 4.50145 6.11441C4.50145 7.0116 5.12488 7.72832 6.0877 7.72832ZM15.496 18.5044H18.5044L18.5049 13.0397C18.5049 10.2333 17.011 8.9316 15.0361 8.9316C13.4447 8.9316 12.7608 9.82879 12.323 10.4522V9.15051H9.31457V18.5044H12.323V13.1766C12.323 12.9029 12.345 12.6347 12.4271 12.4379C12.646 11.8899 13.1382 11.3274 13.9697 11.3274C15.0582 11.3274 15.496 12.1646 15.496 13.3899V18.5044Z" fill="black"/>
</svg>
