<svg width="24" height="24" viewBox="0 0 24 24" fill="none" xmlns="http://www.w3.org/2000/svg">
<path fill-rule="evenodd" clip-rule="evenodd" d="M3.03532 6.71601L7.875 3.43068L7.875 17.3067C7.81596 17.3366 7.75827 17.3701 7.70226 17.4073L3.24437 20.3684C3.11974 20.4512 2.95312 20.3618 2.95312 20.2122V13.8041V6.87114C2.95312 6.80901 2.98391 6.75091 3.03532 6.71601ZM9.54193 17.3893C9.48766 17.3547 9.43192 17.3236 9.375 17.2959L9.375 3.39749L14.397 6.66354C14.4557 6.70174 14.5162 6.73592 14.5781 6.76609V20.5941L9.54193 17.3893ZM16.0781 20.5618L20.9162 17.3482C20.9686 17.3134 21 17.2548 21 17.192V3.78458C21 3.63411 20.8317 3.54494 20.7072 3.62944L16.2648 6.64509C16.2044 6.68606 16.1421 6.72272 16.0781 6.75506V20.5618ZM7.68834 1.74443C8.25046 1.36284 8.98659 1.35557 9.55613 1.72598L15.2148 5.40608C15.2781 5.44723 15.3599 5.44643 15.4223 5.40403L19.8647 2.38838C20.9852 1.62779 22.5 2.43037 22.5 3.78458V17.192C22.5 17.7572 22.217 18.2849 21.7462 18.5977L16.2509 22.2479C15.6951 22.617 14.9741 22.6241 14.4112 22.2659L8.73662 18.6548C8.67408 18.615 8.59396 18.6158 8.53221 18.6568L4.07431 21.6179C2.95269 22.3629 1.45312 21.5587 1.45312 20.2122V13.8041V6.87114C1.45312 6.31193 1.73016 5.78903 2.19284 5.47495L7.68834 1.74443Z" fill="black"/>
</svg>
