<svg width="32" height="32" viewBox="0 0 32 32" fill="none" xmlns="http://www.w3.org/2000/svg">
<g opacity="0.3">
<path d="M30.4344 14.6632L17.3353 1.56578C16.5816 0.811407 15.3582 0.811407 14.6036 1.56578L11.8837 4.28592L15.3338 7.736C16.1358 7.46519 17.0551 7.64676 17.6942 8.28592C18.3365 8.92907 18.5168 9.85623 18.2392 10.661L21.5645 13.9862C22.369 13.709 23.2972 13.8881 23.9395 14.5316C24.8376 15.4295 24.8376 16.8843 23.9395 17.7824C23.0413 18.6807 21.5865 18.6807 20.6877 17.7824C20.0124 17.1066 19.8454 16.1144 20.1874 15.2823L17.0863 12.1812L17.086 20.3418C17.305 20.4502 17.5116 20.5949 17.6941 20.7766C18.5919 21.6743 18.5919 23.1289 17.6941 24.0281C16.796 24.9258 15.3405 24.9258 14.4433 24.0281C13.5453 23.1289 13.5453 21.6744 14.4433 20.7766C14.6652 20.555 14.922 20.3874 15.196 20.275V12.0385C14.9219 11.9265 14.6654 11.7601 14.4432 11.5368C13.763 10.8572 13.5992 9.85892 13.948 9.02368L10.5469 5.62206L1.56596 14.6027C0.811348 15.3577 0.811348 16.5811 1.56596 17.3355L14.6642 30.433C15.4184 31.1874 16.6413 31.1874 17.3965 30.433L30.4342 17.3974C31.1886 16.6427 31.1886 15.4189 30.4342 14.6644" fill="white"/>
</g>
</svg>
