<svg width="32" height="32" viewBox="0 0 32 32" fill="none" xmlns="http://www.w3.org/2000/svg">
<g opacity="0.3">
<path fill-rule="evenodd" clip-rule="evenodd" d="M18.5634 4.43799C18.6353 4.19589 18.6739 3.93934 18.6739 3.67365C18.6739 2.1951 17.4788 1 16.0003 1C14.5217 1 13.3266 2.1951 13.3266 3.67365C13.3266 3.93788 13.3648 4.19305 13.4359 4.43398L7.26553 7.99656C7.09247 7.81381 6.89054 7.65241 6.66163 7.51945C5.38227 6.784 3.74284 7.22067 3.00739 8.50004C2.27195 9.77941 2.70862 11.4188 3.98799 12.1543C4.21639 12.2856 4.45626 12.3795 4.70042 12.438V19.5638C4.45905 19.6223 4.22182 19.7157 3.99562 19.8458C2.71625 20.5889 2.27958 22.2206 3.01502 23.5C3.75047 24.7794 5.38224 25.216 6.66926 24.4806C6.89576 24.349 7.09584 24.1896 7.26769 24.0093L13.4348 27.5699C13.3644 27.8097 13.3266 28.0635 13.3266 28.3264C13.3266 29.8049 14.5217 31 16.0003 31C17.4788 31 18.6739 29.7972 18.6739 28.3264C18.6739 28.0318 18.6265 27.7485 18.5388 27.4837L24.6699 23.9438C24.8552 24.1519 25.0765 24.3342 25.3312 24.4806C26.6105 25.216 28.25 24.7794 28.9854 23.5C29.7285 22.2206 29.2919 20.5889 28.0048 19.8458C27.7788 19.7158 27.5416 19.6225 27.3001 19.5639V12.438C27.5442 12.3795 27.7841 12.2856 28.0125 12.1543C29.2919 11.4112 29.7286 9.77941 28.9931 8.50004C28.25 7.22067 26.6182 6.784 25.3389 7.51945C25.1087 7.65314 24.9058 7.81559 24.7321 7.99959L18.5634 4.43799ZM15.2555 6.24254C15.4918 6.31075 15.7417 6.3473 16.0003 6.3473C16.2597 6.3473 16.5103 6.31051 16.7473 6.24187L24.8213 20.2259C24.6406 20.3982 24.4813 20.599 24.3506 20.8264C24.2207 21.0524 24.1273 21.2896 24.0687 21.5312H7.93185C7.87328 21.2898 7.77989 21.0526 7.64986 20.8264C7.51866 20.6005 7.35976 20.4009 7.17999 20.2293L15.2555 6.24254ZM14.0769 5.5323C14.1019 5.55812 14.1273 5.58344 14.1533 5.60824L6.07753 19.5955C6.04259 19.5854 6.00745 19.5759 5.97213 19.5672V12.4317C6.65265 12.2625 7.26583 11.8285 7.64223 11.1737C8.01815 10.5197 8.08783 9.77373 7.89526 9.10139L14.0769 5.5323ZM17.849 5.60658C17.8733 5.58328 17.8972 5.55952 17.9207 5.53532L24.1041 9.10541C23.913 9.77671 23.9831 10.5211 24.3583 11.1737C24.7347 11.8285 25.3478 12.2625 26.0284 12.4317V19.5665C25.9937 19.575 25.9592 19.5842 25.9249 19.5941L17.849 5.60658ZM24.1207 22.9782L17.9775 26.5251C17.4888 25.9888 16.7844 25.6527 16.0003 25.6527C15.243 25.6527 14.5602 25.9662 14.0741 26.4706L7.90069 22.9063C7.91062 22.872 7.91987 22.8375 7.92843 22.8029H24.0713C24.0858 22.8619 24.1023 22.9204 24.1207 22.9782Z" fill="white"/>
</g>
</svg>
