<svg width="32" height="32" viewBox="0 0 32 32" fill="none" xmlns="http://www.w3.org/2000/svg">
<g opacity="0.3">
<g clip-path="url(#clip0)">
<path d="M6.77441 0H8.21191V1.425H9.53691V0H10.9744V4.3125H9.53691V2.875H8.22441V4.3125H6.77441V0ZM12.8744 1.4375H11.6057V0H15.5869V1.4375H14.3119V4.3125H12.8744V1.4375ZM16.2182 0H17.7244L18.6494 1.51875L19.5744 0H21.0807V4.3125H19.6432V2.175L18.6369 3.725L17.6307 2.175V4.3125H16.2182V0ZM21.7932 0H23.2307V2.8875H25.2682V4.3125H21.7932" fill="white"/>
<path d="M6.72559 29.4381L4.66309 6.28809H27.3381L25.2756 29.4256L15.9818 32.0006" fill="#C7C8CE"/>
<path d="M16 30.0312V8.1875H25.2687L23.5 27.9375" fill="#F7FBFF"/>
<path d="M8.875 11.0176H16V13.8551H11.9875L12.25 16.7613H16V19.5926H9.65L8.875 11.0176ZM9.775 21.0176H12.625L12.825 23.2863L16 24.1363V27.0988L10.175 25.4738" fill="#585A67"/>
<path d="M23.0998 11.0176H15.9873V13.8551H22.8373L23.0998 11.0176ZM22.5811 16.7613H15.9873V19.5988H19.4873L19.1561 23.2863L15.9873 24.1363V27.0863L21.7998 25.4738" fill="#3F3F47"/>
</g>
</g>
<defs>
<clipPath id="clip0">
<rect width="32" height="32" fill="white"/>
</clipPath>
</defs>
</svg>
