<svg width="32" height="32" viewBox="0 0 32 32" fill="none" xmlns="http://www.w3.org/2000/svg">
<g opacity="0.3">
<g clip-path="url(#clip0)">
<path d="M4.93293 20.958L3.259 21.5739L3.16992 26.5877L8.96417 24.4563C6.97514 23.7856 5.52458 22.6034 4.93293 20.958" fill="#DDDDDD"/>
<path d="M5.80887 15.6553L0 17.792L3.25877 21.5755L4.93269 20.9597C4.34236 19.3196 4.70666 17.468 5.80887 15.6553Z" fill="#F1F1F1"/>
<path d="M15.5821 8.41847C8.18575 11.1389 3.41659 16.7539 4.9323 20.9578L31.7164 11.1055C30.2007 6.90159 22.9785 5.698 15.5821 8.41847" fill="#C7C8CE"/>
<path d="M21.0659 23.6468C28.4623 20.9263 33.2394 15.3367 31.7157 11.1074L4.93164 20.9584C6.45532 25.1891 13.6695 26.3672 21.0659 23.6468Z" fill="white"/>
<path d="M31.7154 11.1064L4.93262 20.9588C5.45647 22.4154 7.45746 23.133 10.2628 23.133C12.9991 23.133 16.5012 22.4516 20.1522 21.1087C27.5485 18.3883 32.7511 13.9822 31.7154 11.1064" fill="#F1F1F1"/>
<path d="M26.3847 8.93262C23.6498 8.93262 20.1464 9.61407 16.4954 10.9569C9.09902 13.6774 3.89643 18.0821 4.93216 20.9578L31.7163 11.1055C31.1911 9.64888 29.1914 8.93262 26.3847 8.93262" fill="#DDDDDD"/>
<path d="M24.905 26.8544C24.1166 26.8544 22.9546 26.1381 21.4495 24.7243C19.6692 23.0522 17.631 20.6021 15.7071 17.8268C13.7845 15.0514 12.205 12.2774 11.2584 10.0135C10.228 7.54737 10.0804 6.03183 10.8209 5.50702C10.9925 5.3892 11.1959 5.32896 11.4033 5.33431C12.0056 5.33431 13.1809 5.78549 15.3521 7.93831L15.4 7.98516L15.3933 8.0521C15.3787 8.20741 15.3654 8.36271 15.3534 8.51667L15.3295 8.82058L15.1168 8.60503C12.7767 6.23132 11.7476 5.9756 11.4126 5.9756C11.3169 5.9756 11.2411 5.99435 11.1866 6.03317C10.8648 6.26077 10.8435 7.37466 11.8434 9.76445C12.7727 11.9869 14.3297 14.7194 16.227 17.4586C18.1256 20.1992 20.1332 22.6117 21.8829 24.2544C23.7683 26.0257 24.6178 26.2171 24.8957 26.2171C24.9915 26.2171 25.0686 26.197 25.1271 26.1555C25.4661 25.9159 25.4661 24.723 24.3519 22.1498L24.3001 22.032L24.4118 21.9704C24.5234 21.9088 24.6325 21.8486 24.7335 21.7897L24.8678 21.7134L24.9303 21.8553C25.7201 23.6787 26.4593 25.9962 25.49 26.6817C25.3185 26.7995 25.1138 26.8598 24.905 26.8544ZM24.905 26.5733V26.7138V26.5733Z" fill="white"/>
<path d="M21.2448 23.5693L21.2342 23.7085C21.0467 26.038 20.5547 28.8388 19.2704 28.9526C19.2438 28.9553 19.2172 28.9553 19.1919 28.9553C18.3198 28.9553 17.4941 27.6968 16.7402 25.216C16.0249 22.8677 15.4705 19.7162 15.1793 16.341C14.8868 12.9659 14.8908 9.76476 15.1913 7.32678C15.5184 4.67057 16.1406 3.28356 17.042 3.20324C17.0686 3.20056 17.0966 3.19922 17.1231 3.19922C17.756 3.19922 18.7093 3.92084 19.6852 7.28126L19.0484 7.40443C18.7226 6.28251 18.3676 5.36944 18.0153 4.74019C17.6895 4.16049 17.3718 3.84051 17.1231 3.84051C17.1152 3.84051 17.1072 3.84051 17.0979 3.84185C16.707 3.87666 16.1379 4.82989 15.8215 7.40577C15.5263 9.79957 15.5223 12.9538 15.8109 16.2848C16.0994 19.6171 16.6445 22.7218 17.3465 25.0272C17.6603 26.0595 18.0046 26.9109 18.3437 27.488C18.6548 28.0208 18.9566 28.314 19.1919 28.314C19.1999 28.314 19.2079 28.314 19.2159 28.3127C19.5895 28.2805 20.2942 27.2871 20.5906 23.7942L21.2448 23.5693Z" fill="white"/>
</g>
</g>
<defs>
<clipPath id="clip0">
<rect width="32" height="25.7561" fill="white" transform="translate(0 3.2002)"/>
</clipPath>
</defs>
</svg>
