<svg width="32" height="32" viewBox="0 0 32 32" fill="none" xmlns="http://www.w3.org/2000/svg">
<g opacity="0.3">
<g clip-path="url(#clip0)">
<path d="M10.3352 32.0007C13.2786 32.0007 15.6675 29.6113 15.6675 26.6673V21.334H10.3352C7.39179 21.334 5.00293 23.7233 5.00293 26.6673C5.00293 29.6113 7.39179 32.0007 10.3352 32.0007Z" fill="#9A9DAE"/>
<path d="M5.00293 15.9993C5.00293 13.0553 7.39179 10.666 10.3352 10.666H15.6675V21.3327H10.3352C7.39179 21.3327 5.00293 18.9433 5.00293 15.9993Z" fill="#C7C8CE"/>
<path d="M5.00488 5.33333C5.00488 2.38933 7.39374 0 10.3371 0H15.6694V10.6667H10.3371C7.39374 10.6667 5.00488 8.27733 5.00488 5.33333Z" fill="white"/>
<path d="M15.667 0H20.9993C23.9427 0 26.3315 2.38933 26.3315 5.33333C26.3315 8.27733 23.9427 10.6667 20.9993 10.6667H15.667V0Z" fill="#9A9DAE"/>
<path d="M26.3315 15.9993C26.3315 18.9433 23.9427 21.3327 20.9993 21.3327C18.0558 21.3327 15.667 18.9433 15.667 15.9993C15.667 13.0553 18.0558 10.666 20.9993 10.666C23.9427 10.666 26.3315 13.0553 26.3315 15.9993Z" fill="#585A67"/>
</g>
</g>
<defs>
<clipPath id="clip0">
<rect width="21.3333" height="32" fill="white" transform="translate(5)"/>
</clipPath>
</defs>
</svg>
