<svg width="32" height="32" viewBox="0 0 32 32" fill="none" xmlns="http://www.w3.org/2000/svg">
<g opacity="0.3">
<path d="M22.9076 12.7347C21.2217 5.29759 17.708 3.31774 16.8116 1.91819C16.442 1.30165 16.1146 0.660789 15.8316 0C15.7843 0.660684 15.6973 1.07692 15.1357 1.57793C14.0081 2.58328 9.21928 6.48572 8.81626 14.9359C8.44077 22.8145 14.6083 27.6728 15.4231 28.1749C16.0497 28.4832 16.8127 28.1815 17.1849 27.8985C20.158 25.8581 24.2201 20.4185 22.9109 12.7347" fill="white"/>
<path d="M16.0865 23.9785C15.9312 25.9286 15.82 27.0617 15.4258 28.1761C15.4258 28.1761 15.6845 30.0326 15.8662 31.9992H16.5093C16.6627 30.6143 16.8969 29.2396 17.2107 27.8821C16.3783 27.4724 16.1184 25.6897 16.0865 23.9785Z" fill="#DCDCDC"/>
<path d="M17.2099 27.8838C16.3686 27.4951 16.1253 25.6749 16.0878 23.9792C16.2959 21.1819 16.3565 18.3756 16.2695 15.5719C16.2255 14.1008 16.2904 1.94644 15.9072 0.166992C16.1694 0.769672 16.4714 1.35421 16.8113 1.9167C17.7076 3.31736 21.2224 5.29721 22.9072 12.7343C24.2197 20.4049 20.1797 25.8302 17.2099 27.8838Z" fill="#C7C8CE"/>
</g>
</svg>
