<svg width="32" height="32" viewBox="0 0 32 32" fill="none" xmlns="http://www.w3.org/2000/svg">
<g opacity="0.3">
<path d="M16.1985 32C15.77 32 15.3444 31.8876 14.9687 31.6713L11.054 29.3537C10.4694 29.0267 10.7547 28.9111 10.9475 28.8444C11.7271 28.5715 11.8853 28.5098 12.7174 28.0373C12.8049 27.9874 12.9193 28.005 13.0089 28.0578L16.0162 29.8424C16.1248 29.9011 16.2789 29.9011 16.3796 29.8424L28.1055 23.0739C28.2141 23.0123 28.2845 22.8861 28.2845 22.7569V9.2259C28.2845 9.09089 28.2141 8.97054 28.1031 8.90303L16.3819 2.14046C16.2733 2.07588 16.1295 2.07588 16.0209 2.14046L4.30204 8.90303C4.18845 8.96761 4.11624 9.09382 4.11624 9.22296V22.754C4.11624 22.8831 4.18669 23.0064 4.29822 23.0681L7.50927 24.9231C9.25275 25.7948 10.3182 24.7675 10.3182 23.7343V10.3794C10.3182 10.1886 10.4679 10.0419 10.6587 10.0419H12.1439C12.3288 10.0419 12.4814 10.1886 12.4814 10.3794V23.7402C12.4814 26.0648 11.2134 27.4003 9.00913 27.4003C8.33111 27.4003 7.79692 27.4003 6.30586 26.6665L3.22983 24.8937C2.46962 24.4534 2 23.6316 2 22.754V9.22296C2 8.34242 2.46962 7.52058 3.22983 7.08618L14.9675 0.314795C15.7101 -0.104932 16.6963 -0.104932 17.433 0.314795L29.156 7.08912C29.9133 7.52645 30.3858 8.34536 30.3858 9.2259V22.7569C30.3858 23.6345 29.9133 24.4534 29.156 24.8937L17.433 31.6651C17.0573 31.8823 16.6317 31.9938 16.1973 31.9938" fill="white"/>
<path d="M19.8205 22.6762C14.6898 22.6762 13.6141 20.321 13.6141 18.3457C13.6141 18.1578 13.7655 18.0082 13.9537 18.0082H15.4682C15.6355 18.0082 15.7764 18.13 15.8028 18.2952C16.0318 19.8385 16.7127 20.6169 19.8152 20.6169C22.2866 20.6169 23.3373 20.0586 23.3373 18.7481C23.3373 17.9938 23.038 17.4332 19.1988 17.0575C15.9877 16.7405 14.0036 16.0331 14.0036 13.4648C14.0036 11.0991 15.9995 9.69024 19.3426 9.69024C23.0967 9.69024 24.9576 10.9934 25.1924 13.7936C25.2012 13.8904 25.1659 13.9844 25.1014 14.0548C25.0368 14.1223 24.9458 14.1634 24.8519 14.1634H23.3285C23.17 14.1634 23.0321 14.0519 22.9998 13.8992C22.6329 12.2761 21.7465 11.7566 19.3367 11.7566C16.6393 11.7566 16.3253 12.6958 16.3253 13.4003C16.3253 14.2544 16.6951 14.5039 20.3347 14.9852C23.9391 15.4637 25.6502 16.1388 25.6502 18.6718C25.6502 21.2254 23.5193 22.69 19.8034 22.69L19.8205 22.6762Z" fill="white"/>
</g>
</svg>
