<svg width="32" height="32" viewBox="0 0 32 32" fill="none" xmlns="http://www.w3.org/2000/svg">
<g opacity="0.3">
<path d="M18.7884 15.9608C18.7884 17.5042 17.5373 18.7553 15.9939 18.7553C14.4505 18.7553 13.1993 17.5042 13.1993 15.9608C13.1993 14.4174 14.4505 13.1663 15.9939 13.1663C17.5373 13.1663 18.7884 14.4174 18.7884 15.9608Z" fill="white"/>
<path fill-rule="evenodd" clip-rule="evenodd" d="M24.6955 10.9221C28.5112 12.09 31 13.9734 31 15.9608C31 17.942 28.5234 19.8255 24.7322 20.9934C25.6188 24.8703 25.2336 27.9584 23.5153 28.949C23.1117 29.1813 22.647 29.2914 22.1333 29.2914C20.4517 29.2914 18.2503 28.1051 16.0245 26.0383C13.7986 28.1173 11.5972 29.3159 9.91561 29.3159C9.40196 29.3159 8.93722 29.2058 8.53975 28.9734C6.81533 27.9828 6.42397 24.8886 7.30452 20.9995C3.48879 19.8316 1 17.9482 1 15.9608C1 13.9796 3.47656 12.1023 7.28007 10.9282C6.3934 7.0513 6.77864 3.96325 8.49694 2.97262C8.90053 2.74025 9.36527 2.63018 9.87892 2.63018V2.62407C11.5605 2.62407 13.7619 3.81037 15.9878 5.87723C18.2136 3.79814 20.415 2.59961 22.0966 2.59961V2.60573C22.6018 2.60661 23.0644 2.71673 23.4603 2.94816C25.1847 3.93879 25.576 7.03296 24.6955 10.9221ZM22.0905 3.96325C20.8187 3.9665 18.9503 4.9813 16.96 6.83116C17.8223 7.73006 18.6784 8.75738 19.5039 9.88864C20.8797 10.0354 22.1883 10.2617 23.3869 10.5552C23.5214 9.93756 23.6315 9.33218 23.6987 8.75738C23.98 6.42146 23.6192 4.60532 22.7876 4.12835C22.598 4.0244 22.3718 3.96936 22.0905 3.96936V3.96325ZM15.0155 6.83728C13.022 4.99667 11.1447 3.98771 9.87892 3.98771V3.99382C9.59764 3.99382 9.35915 4.04274 9.1757 4.15281C8.35018 4.63589 7.99552 6.45203 8.28292 8.78795C8.3563 9.35664 8.46025 9.94979 8.6009 10.5613C9.79943 10.2617 11.108 10.0354 12.49 9.88864C13.3033 8.75738 14.1594 7.73618 15.0155 6.83728ZM22.2128 14.2975C22.5308 13.4842 22.8121 12.671 23.0383 11.8821C22.2373 11.6864 21.3995 11.5275 20.5312 11.399C20.8308 11.8638 21.1305 12.3407 21.4117 12.8299C21.6991 13.3191 21.9621 13.8083 22.2128 14.2975ZM18.764 20.7305C19.2715 20.0028 19.7607 19.2201 20.2377 18.3946C20.6963 17.5935 21.1182 16.7741 21.5035 15.9547C21.1182 15.1353 20.6963 14.322 20.2316 13.5209C19.7546 12.7015 19.2593 11.9249 18.7517 11.1972C17.8467 11.1239 16.9234 11.0811 16 11.0811C15.0705 11.0811 14.1472 11.1239 13.236 11.2034C12.7285 11.931 12.2393 12.7138 11.7623 13.5393C11.3037 14.3403 10.8757 15.1597 10.4965 15.9791C10.8818 16.7985 11.3037 17.6118 11.7684 18.4129C12.2454 19.2323 12.7407 20.0089 13.2483 20.7366C14.1533 20.81 15.0766 20.8528 16 20.8528C16.9295 20.8528 17.8528 20.81 18.764 20.7305ZM23.0567 20.0334C22.8243 19.2384 22.543 18.419 22.2128 17.5996C21.9621 18.0888 21.6991 18.5841 21.4179 19.0733C21.1366 19.5686 20.8369 20.0517 20.5373 20.5226C21.4117 20.3941 22.2556 20.229 23.0567 20.0334ZM14.3123 22.1675C14.8748 22.8829 15.4435 23.5372 16.0122 24.1243C16.5748 23.5372 17.1435 22.8829 17.6938 22.1675C17.1374 22.1981 16.5687 22.2103 15.9939 22.2103C15.4252 22.2103 14.8626 22.1919 14.3123 22.1675ZM8.95556 20.0395C9.75662 20.2352 10.5944 20.3941 11.4627 20.5226C11.1631 20.0578 10.8695 19.5809 10.5821 19.0917C10.2947 18.6025 10.0318 18.1133 9.78108 17.6241C9.46311 18.4374 9.18182 19.2506 8.95556 20.0395ZM17.6816 9.75411C17.119 9.03866 16.5503 8.38436 15.9817 7.79733C15.4191 8.38436 14.8504 9.03866 14.3 9.75411C14.8565 9.72354 15.4252 9.71131 16 9.71131C16.5687 9.71131 17.1313 9.72965 17.6816 9.75411ZM10.576 12.8483C10.8573 12.353 11.157 11.8699 11.4566 11.399C10.5821 11.5275 9.73828 11.6926 8.93722 11.8821C9.16959 12.6771 9.45088 13.4965 9.78108 14.3159C10.0318 13.8267 10.2947 13.3375 10.576 12.8483ZM2.35752 15.9608C2.35752 16.9208 3.75785 18.1316 5.92254 19.055C6.45455 19.2812 7.02935 19.4891 7.63473 19.6787C7.97717 18.4863 8.42968 17.2449 8.99226 15.973C8.42356 14.695 7.96494 13.4476 7.61639 12.249C7.02324 12.4386 6.44843 12.6404 5.92254 12.8666C3.75785 13.7839 2.35752 15.0007 2.35752 15.9608ZM8.30127 23.1642C8.01998 25.5001 8.38076 27.3163 9.21239 27.7932C9.39584 27.8972 9.62821 27.9522 9.90338 27.9584C11.1753 27.9584 13.0465 26.9433 15.04 25.0904C14.1777 24.1915 13.3216 23.1642 12.4961 22.033C11.1203 21.8862 9.81166 21.6599 8.61313 21.3664C8.4786 21.984 8.36853 22.5894 8.30127 23.1642ZM22.8243 27.7688C23.6498 27.2857 24.0045 25.4696 23.7171 23.1336C23.6498 22.565 23.5397 21.9718 23.3991 21.3542C22.2006 21.6538 20.892 21.8801 19.51 22.0268C18.6967 23.1581 17.8406 24.1793 16.9845 25.0782C18.978 26.9188 20.8553 27.9278 22.1211 27.9278C22.4024 27.9278 22.6408 27.8789 22.8243 27.7688ZM24.3775 19.6726C24.9706 19.483 25.5455 19.2812 26.0713 19.055C28.236 18.1377 29.6364 16.9208 29.6425 15.9608C29.6425 15.0007 28.2422 13.79 26.0775 12.8666C25.5393 12.6404 24.9645 12.4325 24.3592 12.2429C24.0167 13.4353 23.5642 14.6767 23.0016 15.9486C23.5703 17.2266 24.0289 18.474 24.3775 19.6726Z" fill="white"/>
</g>
</svg>
