<svg width="32" height="32" viewBox="0 0 32 32" fill="none" xmlns="http://www.w3.org/2000/svg">
<g opacity="0.3">
<path d="M6.98175 2.46472L15.9998 1.5L25.0179 2.46472L31.9997 11.9484L15.9998 30.8014L0 11.9484L6.98175 2.46472Z" fill="#FDB300"/>
<path d="M6.48074 11.9482L15.9999 30.8012L0 11.9482H6.48074Z" fill="#9A9DAE"/>
<path d="M25.5193 11.9482L16.0001 30.8012L32 11.9482H25.5193Z" fill="#9A9DAE"/>
<path d="M6.48145 11.9482H25.5197L16.0006 30.8012L6.48145 11.9482Z" fill="#C7C8CE"/>
<path d="M16.0006 1.5L6.98243 2.46471L6.48145 11.9484L16.0006 1.5Z" fill="#EBEBEB"/>
<path d="M15.9994 1.5L25.0176 2.46471L25.5186 11.9484L15.9994 1.5Z" fill="#EBEBEB"/>
<path d="M32 11.9486L25.0182 2.46484L25.5193 11.9486H32Z" fill="#C7C8CE"/>
<path d="M0 11.9486L6.98172 2.46484L6.48074 11.9486H0Z" fill="#C7C8CE"/>
<path d="M16.0006 1.5L6.48145 11.9484H25.5197L16.0006 1.5Z" fill="white"/>
</g>
</svg>
